<svg xmlns="http://www.w3.org/2000/svg" viewBox="0 0 100 100">
  <path d="m61.5 81.8-9.7.8h-.5c-1.8 0-3.4-.7-4.6-2a6 6 0 0 1-1.6-4.8l.8-9.7a8 8 0 0 1 2.2-4.8l22.2-22.2V18.9c0-5.5-4.4-9.9-9.9-9.9h-48a9.9 9.9 0 0 0-9.9 9.9v62.2c0 5.5 4.4 9.9 9.9 9.9h47.8c5.5 0 9.9-4.4 9.9-9.9v-5.4l-3.9 3.9a7 7 0 0 1-4.7 2.2zM17.7 23.6H55c1.4 0 2.6 1.2 2.6 2.6 0 1.4-1.2 2.6-2.6 2.6H17.7a2.6 2.6 0 0 1-2.6-2.6c.1-1.5 1.2-2.6 2.6-2.6zm0 15.9H55c1.4 0 2.6 1.2 2.6 2.6 0 1.4-1.2 2.6-2.6 2.6H17.7a2.6 2.6 0 0 1-2.6-2.6c.1-1.5 1.2-2.6 2.6-2.6zm18.4 36.9H17.7a2.6 2.6 0 0 1-2.6-2.6c0-1.4 1.1-2.6 2.6-2.6h18.4c1.4 0 2.6 1.1 2.6 2.6s-1.1 2.6-2.6 2.6zm3.5-15.9H17.7a2.6 2.6 0 0 1-2.6-2.6c0-1.4 1.1-2.6 2.6-2.6h21.8c1.4 0 2.6 1.2 2.6 2.6 0 1.5-1.1 2.6-2.5 2.6z"/>
  <path d="M51.7 65c-.4.4-.7 1-.7 1.6l-.8 9.7c-.1.7.5 1.3 1.3 1.3l9.7-.8c.6-.1 1.2-.3 1.6-.8l26.9-26.9-11-11-27 26.9zM97 39l-8.3-8.3c-.7-.7-1.9-.7-2.6 0l-3.8 3.8 11 11 3.8-3.8c.6-.8.6-1.9-.1-2.7z"/>
</svg>
